# xmcd CD database file
#
# Track frame offsets:
#	150
#	14175
#	32350
#	46700
#	60475
#	71600
#	87250
#	97350
#	111900
#	123250
#	138175
#	147700
#	166475
#	180400
#	195525
#	211050
#	224425
#	234675
#	243850
#	263050
#	273925
#
# Disc length: 3886 seconds
#
# Revision: 0
# Processed by: cddbd v1.5.1PL2 Copyright (c) Steve Scherf et al.
# Submitted via: CDex 1.51
#
DISCID=320f2c15
DTITLE=Yancy de Veer - Western Winds
DYEAR=1900
DGENRE=Country
TTITLE0=Riding Down the Canyon
TTITLE1=Black Hills Train
TTITLE2=Smoke that Cigarette
TTITLE3=Boutte Bion
TTITLE4=Tumbling Tubmleweeds
TTITLE5=Anasazi People
TTITLE6=Battle of New Orleans
TTITLE7=Winter Ground
TTITLE8=Grandpa Song
TTITLE9=Hickory Wind
TTITLE10=The hole in my Sombrero
TTITLE11=Cool Water
TTITLE12=Strawberry Roan
TTITLE13=Danny Boy
TTITLE14=American Hero
TTITLE15=Mule Skinner Blues
TTITLE16=Cattle Call
TTITLE17=Hawaiian Cowboy
TTITLE18=Montana
TTITLE19=Love is everywhere
TTITLE20=Home on the Range
EXTD=
EXTT0=
EXTT1=
EXTT2=
EXTT3=
EXTT4=
EXTT5=
EXTT6=
EXTT7=
EXTT8=
EXTT9=
EXTT10=
EXTT11=
EXTT12=
EXTT13=
EXTT14=
EXTT15=
EXTT16=
EXTT17=
EXTT18=
EXTT19=
EXTT20=
PLAYORDER=
